Coordinates
version=1
nRows=14
nColumns=63
inDegrees=yes

Units are S.I. units (second, meters, Newtons, ...)
If the header above contains a line with 'inDegrees', this indicates whether rotational values are in degrees (yes) or radians (no).

endheader
time	pelvis_tilt	pelvis_list	pelvis_rotation	pelvis_tx	pelvis_ty	pelvis_tz	hip_flexion_r	hip_adduction_r	hip_rotation_r	knee_angle_r	knee_angle_r_beta	ankle_angle_r	subtalar_angle_r	mtp_angle_r	hip_flexion_l	hip_adduction_l	hip_rotation_l	knee_angle_l	knee_angle_l_beta	ankle_angle_l	subtalar_angle_l	mtp_angle_l	L5_S1_Flex_Ext	L5_S1_Lat_Bending	L5_S1_axial_rotation	L4_L5_Flex_Ext	L4_L5_Lat_Bending	L4_L5_axial_rotation	L3_L4_Flex_Ext	L3_L4_Lat_Bending	L3_L4_axial_rotation	L2_L3_Flex_Ext	L2_L3_Lat_Bending	L2_L3_axial_rotation	L1_L2_Flex_Ext	L1_L2_Lat_Bending	L1_L2_axial_rotation	L1_T12_Flex_Ext	L1_T12_Lat_Bending	L1_T12_axial_rotation	Abs_r3	Abs_r2	Abs_r1	Abs_t1	Abs_t2	neck_flexion	neck_bending	neck_rotation	arm_flex_r	arm_add_r	arm_rot_r	elbow_flex_r	pro_sup_r	wrist_flex_r	wrist_dev_r	arm_flex_l	arm_add_l	arm_rot_l	elbow_flex_l	pro_sup_l	wrist_flex_l	wrist_dev_l
0.000000	-0.494416	-2.022957	98.747831	0.273601	0.787781	0.590026	-6.259928	0.310480	11.318478	0.365389	0.006377	29.430340	-12.995236	0.000000	-0.783452	-0.858414	23.111911	4.997287	0.087219	33.764793	-8.181554	0.000000	0.061870	-0.380564	-0.750185	0.114899	-0.506150	-0.797072	0.101646	-0.925302	-0.797072	0.070711	-0.925302	-0.656412	0.057452	-0.776045	-0.609526	0.035352	-0.589493	-0.562639	0.441930	-4.305012	-4.172306	0.000000	0.000000	13.696310	9.016808	-9.379895	18.148455	-2.762922	83.360786	32.536256	83.926627	-9.611152	-5.346186	14.004469	-8.514497	65.069635	38.248013	76.604212	1.618346	-7.381823
0.016949	-0.053573	-2.544319	99.607517	0.271509	0.786764	0.593916	-5.478531	0.670256	10.157422	0.396928	0.006928	28.848905	-13.449405	0.000000	1.060349	-1.161655	19.406024	6.928515	0.120925	34.974892	-2.761966	0.000000	0.080926	-0.327995	-0.956235	0.150288	-0.436233	-1.016000	0.132953	-0.797487	-1.016000	0.092490	-0.797487	-0.836706	0.075148	-0.668847	-0.776941	0.046241	-0.508064	-0.717176	0.578046	-3.710344	-5.318293	0.000000	0.000000	15.032419	9.199969	-9.625576	18.819644	-3.279026	85.003658	33.319622	77.649137	-8.390349	-6.663065	13.267099	-8.940175	62.536039	39.854845	77.569312	2.537742	-6.656402
0.033898	0.332177	-2.994025	100.318508	0.269702	0.785851	0.597314	-4.798439	0.973952	9.234867	0.428554	0.007480	28.387002	-13.820959	0.000000	2.642614	-1.423220	16.338208	8.583499	0.149810	36.006258	1.713534	0.000000	0.096715	-0.280291	-1.126751	0.179609	-0.372787	-1.197173	0.158892	-0.681500	-1.197173	0.110535	-0.681500	-0.985907	0.089809	-0.571570	-0.915485	0.055263	-0.434171	-0.845063	0.690823	-3.170709	-6.266651	0.000000	0.000000	16.173219	9.312604	-9.797299	19.374254	-3.731124	86.345932	33.982231	72.371704	-7.284677	-7.689989	12.673649	-9.269863	60.436746	41.155457	78.376036	3.304625	-6.098802
0.050847	0.666900	-3.376912	100.893318	0.268158	0.785034	0.600252	-4.212945	1.226389	8.528981	0.460063	0.008030	28.033446	-14.116933	0.000000	3.982712	-1.646660	13.853058	9.983288	0.174241	36.874389	5.327404	0.000000	0.109484	-0.237149	-1.264823	0.203322	-0.315408	-1.343875	0.179871	-0.576604	-1.343875	0.125129	-0.576604	-1.106720	0.101667	-0.483594	-1.027669	0.062559	-0.367344	-0.948617	0.782032	-2.682677	-7.034568	0.000000	0.000000	17.134093	9.362087	-9.900578	19.819050	-4.123761	87.402742	34.533584	68.029181	-6.289296	-8.453304	12.210853	-9.512441	58.734737	42.176513	79.035517	3.931094	-5.693128
0.067797	0.954662	-3.697820	101.344459	0.266858	0.784310	0.602763	-3.715343	1.432384	8.017933	0.491250	0.008574	27.777049	-14.344358	0.000000	5.100011	-1.835530	11.895168	11.148930	0.194586	37.594785	8.162105	0.000000	0.119482	-0.198265	-1.373543	0.221889	-0.263692	-1.459390	0.196296	-0.482061	-1.459390	0.136555	-0.482061	-1.201850	0.110951	-0.404302	-1.116004	0.068272	-0.307112	-1.030157	0.853445	-2.242812	-7.639235	0.000000	0.000000	17.930424	9.355794	-9.940926	20.160797	-4.461483	88.189219	34.983179	64.556425	-5.399368	-8.979355	11.865447	-9.676791	57.392993	42.944678	79.558883	4.429251	-5.423491
0.084746	1.199529	-3.961586	101.684443	0.265779	0.783671	0.604878	-3.298927	1.596758	7.679891	0.521911	0.009109	27.606625	-14.510268	0.000000	6.013880	-1.993381	10.409132	12.101476	0.211211	38.182945	10.300096	0.000000	0.126956	-0.163335	-1.456001	0.235769	-0.217236	-1.547001	0.208575	-0.397134	-1.547001	0.145098	-0.397134	-1.274001	0.117891	-0.333074	-1.183001	0.072542	-0.253007	-1.092001	0.906832	-1.847683	-8.097840	0.000000	0.000000	18.577593	9.301100	-9.923858	20.406259	-4.748834	88.720496	35.340515	61.888290	-4.610052	-9.294489	11.624164	-9.771791	56.374494	43.486616	79.957266	4.811196	-5.273997
0.101695	1.405567	-4.173049	101.925783	0.264901	0.783114	0.606632	-2.956991	1.724327	7.493024	0.551841	0.009631	27.510986	-14.621696	0.000000	6.743687	-2.123766	9.339544	12.861975	0.224484	38.654367	11.823838	0.000000	0.132154	-0.132057	-1.515288	0.245424	-0.175636	-1.609993	0.217116	-0.321084	-1.609993	0.151039	-0.321084	-1.325877	0.122718	-0.269291	-1.231171	0.075513	-0.204556	-1.136466	0.943965	-1.493856	-8.427575	0.000000	0.000000	19.090984	9.205380	-9.854888	20.562200	-4.990360	89.011705	35.615091	59.959630	-3.916507	-9.425050	11.473740	-9.806324	55.642221	43.828993	80.241797	5.089030	-5.228757
0.118644	1.576841	-4.337047	102.080992	0.264202	0.782632	0.608055	-2.682830	1.819912	7.435500	0.580835	0.010137	27.478947	-14.685675	0.000000	7.308800	-2.230239	8.630997	13.451476	0.234773	39.024550	12.815791	0.000000	0.135325	-0.104126	-1.554494	0.251312	-0.138488	-1.651650	0.222326	-0.253173	-1.651650	0.154663	-0.253173	-1.360182	0.125663	-0.212335	-1.263026	0.077325	-0.161292	-1.165870	0.966614	-1.177898	-8.645628	0.000000	0.000000	19.485979	9.076010	-9.739529	20.635387	-5.190607	89.077979	35.816407	58.705301	-3.313895	-9.397385	11.400910	-9.789269	55.159157	43.998472	80.423605	5.274854	-5.271876
0.135593	1.717417	-4.458419	102.162582	0.263661	0.782221	0.609181	-2.469736	1.888331	7.485487	0.608689	0.010624	27.499320	-14.709239	0.000000	7.728587	-2.316352	8.228086	13.891028	0.242444	39.308994	13.358414	0.000000	0.136716	-0.079240	-1.576710	0.253896	-0.105389	-1.675254	0.224611	-0.192664	-1.675254	0.156253	-0.192664	-1.379621	0.126955	-0.161586	-1.281077	0.078120	-0.122743	-1.182533	0.976551	-0.896377	-8.769189	0.000000	0.000000	19.777961	8.920365	-9.583294	20.632582	-5.354120	88.934449	35.953961	58.060156	-2.797375	-9.237839	11.392408	-9.729507	54.888281	44.021719	80.513822	5.380768	-5.387465
0.152542	1.831362	-4.542002	102.183065	0.263256	0.781875	0.610041	-2.311005	1.934403	7.621154	0.635198	0.011086	27.560918	-14.699421	0.000000	8.022416	-2.385657	8.075405	14.201680	0.247866	39.523197	13.534167	0.000000	0.136576	-0.057094	-1.585027	0.253635	-0.075935	-1.684092	0.224380	-0.138818	-1.684092	0.156092	-0.138818	-1.386899	0.126824	-0.116426	-1.287835	0.078039	-0.088439	-1.188771	0.975547	-0.645859	-8.815447	0.000000	0.000000	19.982312	8.745819	-9.391699	20.560552	-5.485444	88.596250	36.037253	57.959051	-2.362107	-8.972759	11.434970	-9.635918	54.792575	43.925398	80.523578	5.418874	-5.559632
0.169492	1.922741	-4.592637	102.154955	0.262968	0.781588	0.610669	-2.199929	1.962947	7.820669	0.660159	0.011522	27.652555	-14.663253	0.000000	8.209657	-2.441709	8.117548	14.404482	0.251406	39.682659	13.425510	0.000000	0.135151	-0.037385	-1.582536	0.250990	-0.049723	-1.681445	0.222040	-0.090899	-1.681445	0.154464	-0.090899	-1.384719	0.125502	-0.076236	-1.285811	0.077225	-0.057910	-1.186902	0.965373	-0.422912	-8.801593	0.000000	0.000000	20.114416	8.559749	-9.170257	20.426061	-5.589125	88.078512	36.075781	58.336841	-2.003251	-8.628489	11.515330	-9.517384	54.835019	43.736174	80.464004	5.401271	-5.772484
0.186441	1.983520	-4.606434	102.094122	0.262798	0.781342	0.611078	-2.149088	1.971624	8.064525	0.685386	0.011962	27.692522	-14.652338	0.000000	8.285517	-2.486151	8.332485	14.496998	0.253020	39.728057	13.075080	0.000000	0.131145	-0.022196	-1.569204	0.243550	-0.029521	-1.667279	0.215458	-0.053968	-1.667279	0.149886	-0.053968	-1.373053	0.121781	-0.045263	-1.274978	0.074936	-0.034382	-1.176903	0.936757	-0.251090	-8.727440	0.000000	0.000000	20.202024	8.383243	-8.966974	20.196420	-5.659850	87.286974	36.095125	58.986150	-1.593254	-8.186910	11.643137	-9.389903	55.057157	43.509105	80.088998	5.350641	-5.961702
0.203390	2.034963	-4.603135	102.015225	0.262664	0.781159	0.611292	-2.122337	1.975817	8.242420	0.707901	0.012355	27.783682	-14.530134	0.000000	8.294567	-2.516133	8.673360	14.509750	0.253243	39.775449	12.558175	0.000000	0.128084	-0.007975	-1.558427	0.237865	-0.010607	-1.655828	0.210430	-0.019392	-1.655828	0.146387	-0.019392	-1.363623	0.118939	-0.016264	-1.266222	0.073187	-0.012354	-1.168820	0.914893	-0.090220	-8.667501	0.000000	0.000000	20.263899	8.225055	-8.715968	19.929288	-5.715168	86.386471	36.083630	60.200576	-1.391939	-7.797280	11.717801	-9.272702	55.173854	43.271305	79.911290	5.296035	-6.166378
0.220339	2.096684	-4.599158	101.978205	0.262518	0.780999	0.611502	-2.093270	1.998708	8.395417	0.726103	0.012673	27.872458	-14.451329	0.000000	8.381978	-2.573658	8.516664	14.665567	0.255962	40.038951	12.727201	0.000000	0.125033	0.006616	-1.558108	0.232199	0.008799	-1.655490	0.205417	0.016085	-1.655490	0.142900	0.016085	-1.363344	0.116106	0.013491	-1.265963	0.071444	0.010248	-1.168581	0.893098	0.074838	-8.665729	0.000000	0.000000	20.342130	8.089709	-8.456189	19.643957	-5.765130	85.378728	36.058450	61.671894	-1.289919	-7.478925	11.778092	-9.167788	55.258943	43.031248	79.769765	5.223835	-6.377337
